<?xml version="1.0" encoding="UTF-8"?><svg xmlns="http://www.w3.org/2000/svg" viewBox="0 0 314.14 128.91"><defs><style>.cls-1{letter-spacing:-.01em;}.cls-2{font-size:41px;}.cls-3{fill:#5b62ee;}.cls-3,.cls-4,.cls-5{stroke-width:0px;}.cls-6{letter-spacing:0em;}.cls-7{letter-spacing:0em;}.cls-8{letter-spacing:-.02em;}.cls-9,.cls-10,.cls-11{fill:#ff7f3e;}.cls-9,.cls-11{font-family:Montserrat-Bold, Montserrat;font-weight:700;}.cls-12{letter-spacing:-.03em;}.cls-4,.cls-13,.cls-14{fill:#f7f6f9;}.cls-5{fill:#fcce3a;}.cls-15{letter-spacing:-.01em;}.cls-10{font-family:Montserrat-Regular, Montserrat;font-size:20px;}.cls-13{letter-spacing:-.02em;}.cls-13,.cls-14{font-family:Montserrat-Light, Montserrat;font-weight:300;}.cls-16{letter-spacing:0em;}.cls-17{letter-spacing:-.02em;}.cls-18{letter-spacing:0em;}.cls-11{letter-spacing:0em;}.cls-19{letter-spacing:0em;}.cls-20{letter-spacing:0em;}.cls-21{letter-spacing:0em;}</style></defs><g id="OBJECTS"><path class="cls-5" d="M82.24,50.69c-.04-10.7-2.91-18.49-7.11-24.18l-.04.04-1.96-1.96c-.98.65-2.09,1.12-3.28,1.36v2.77h-3.77v-2.77c-1.19-.24-2.3-.71-3.28-1.36l-1.96,1.96-2.67-2.67,1.96-1.96c-.65-.98-1.12-2.09-1.36-3.28h-2.77v-3.77h2.77c.02-.11.06-.22.08-.33-9.32-3.58-17.87-3.32-17.87-3.32C40.99,11.21-.13,10.24.01,50.98c0,0-.71,10.47,9.06,23.52,9.77,13.05,13.13,13.78,13.17,24.62l19.06-.07,19.06-.07c-.04-10.84,3.32-11.6,12.99-24.72,9.67-13.12,8.89-23.58,8.89-23.58Z"/><path class="cls-4" d="M54.83,57.06c-1.34-1.16-2.82-1.54-4.17-1.05-.8.29-1.74.95-2.61,2.33-.76-1.55-1.67-2.82-2.67-3.76-1.75-1.67-3.69-2.29-5.47-1.75-1.53.46-3.56,1.98-4.58,6.58-.13.57-.24,1.13-.34,1.69-1.38-1.16-2.86-1.94-4.29-2.17-1.59-.26-5.48-.16-7.13,6.51-3.35,13.61,9.58,35.49,10.13,36.41l1.29-.77c-.13-.22-13.17-22.27-9.96-35.29.68-2.76,2.17-5.93,5.43-5.39,1.42.24,2.91,1.13,4.27,2.45-.98,7.73.65,14.2,2.57,15.81.71.6,1.34.47,1.66.34.99-.41,1.59-1.92,1.83-4.6.39-4.47-1.67-9.03-4.47-12.05.12-.86.28-1.73.48-2.62.68-3.04,1.94-4.98,3.56-5.47,1.24-.37,2.66.12,4,1.4,1.09,1.04,2.08,2.52,2.84,4.37-.54,1.3-1.02,3-1.38,5.19-1.78,10.89-.76,12.9.47,13.43,1.3.56,2.54-.96,2.78-1.28l.13-.27c1.71-6.81,1.21-12.71-.38-17.01.67-1.43,1.48-2.36,2.36-2.68,1.06-.38,2.04.21,2.68.77,2.96,2.58,5.16,9.76,3.41,17.99-2.9,13.69-4.83,18.34-6.52,22.44-.34.83-.68,1.65-1.02,2.51l1.39.54c.33-.86.67-1.66,1-2.48,1.72-4.16,3.67-8.88,6.6-22.7,1.87-8.79-.61-16.57-3.89-19.43ZM39.3,74.28c-.26,2.94-.88,3.34-.87,3.35-.01,0-.22-.07-.55-.57-1.19-1.8-2.31-6.69-1.79-12.68,2.08,2.7,3.53,6.39,3.22,9.91ZM47.78,76.59c-.31.37-.72.73-.9.69-.06-.03-1.36-.89.42-11.81.19-1.14.42-2.18.68-3.11,1.02,3.79,1.17,8.67-.2,14.23Z"/><path class="cls-3" d="M60.29,105.25s-.02-5.61-.02-5.61c0-.36-.3-.65-.66-.65h-4.02s-14.3.07-14.3.07l-14.3.05h-4.02c-.36.02-.65.31-.65.67,0,0,.02,5.6.02,5.61.01,3.3,3.4,4.61,4.56,7.28.84,1.95.1,4.25.71,6.33,1.58,5.33,6.76,9.05,12.28,9.03h1.5s1.5-.01,1.5-.01c5.53-.02,10.68-3.77,12.22-9.12.6-2.08-.16-4.37.67-6.33,1.13-2.68,4.52-4.02,4.51-7.32Z"/><path class="cls-5" d="M81.84,11.03v-3h-2.21c-.19-.95-.57-1.83-1.08-2.61l1.56-1.56-2.12-2.12-1.56,1.56c-.78-.52-1.66-.89-2.61-1.08V0h-3v2.21c-.95.19-1.83.57-2.61,1.08l-1.56-1.56-2.12,2.12,1.56,1.56c-.52.78-.89,1.66-1.08,2.61h-2.21v3h2.21c.19.95.57,1.83,1.08,2.61l-1.56,1.56,2.12,2.12,1.56-1.56c.78.52,1.66.89,2.61,1.08v2.21h3v-2.21c.95-.19,1.83-.57,2.61-1.08l1.56,1.56,2.12-2.12-1.56-1.56c.52-.78.89-1.66,1.08-2.61h2.21ZM72.31,13.39c-2.13,0-3.86-1.73-3.86-3.86s1.73-3.86,3.86-3.86,3.86,1.73,3.86,3.86-1.73,3.86-3.86,3.86Z"/><path class="cls-4" d="M100.59,7.39v-2.01h-1.48c-.13-.64-.38-1.23-.73-1.75l1.05-1.05-1.42-1.42-1.05,1.05c-.52-.35-1.11-.6-1.75-.73V0h-2.01v1.48c-.64.13-1.23.38-1.75.73l-1.05-1.05-1.42,1.42,1.05,1.05c-.35.52-.6,1.11-.73,1.75h-1.48v2.01h1.48c.13.64.38,1.23.73,1.75l-1.05,1.05,1.42,1.42,1.05-1.05c.52.35,1.11.6,1.75.73v1.48h2.01v-1.48c.64-.13,1.23-.38,1.75-.73l1.05,1.05,1.42-1.42-1.05-1.05c.35-.52.6-1.11.73-1.75h1.48ZM94.2,8.98c-1.43,0-2.59-1.16-2.59-2.59s1.16-2.59,2.59-2.59,2.59,1.16,2.59,2.59-1.16,2.59-2.59,2.59Z"/><path class="cls-5" d="M118.49,38.92v-2.53h-1.83c-.04-.49-.11-.98-.2-1.45l1.76-.49-.67-2.44-1.76.49c-.14-.38-.29-.74-.46-1.1l1.59-.91-1.26-2.2-1.59.91c-.27-.38-.55-.75-.85-1.11l1.29-1.29-1.79-1.79-1.29,1.29c-.36-.31-.74-.6-1.13-.87l.91-1.59-2.2-1.26-.91,1.59c-.41-.19-.82-.36-1.25-.51l.46-1.77-2.45-.64-.47,1.77c-.42-.07-.84-.13-1.27-.16v-1.83h-2.53v1.83c-.49.04-.98.11-1.45.2l-.49-1.76-2.44.67.49,1.76c-.38.14-.74.29-1.1.46l-.91-1.59-2.2,1.26.91,1.59c-.38.27-.75.55-1.11.85l-1.29-1.29-1.79,1.79,1.29,1.29c-.31.36-.6.74-.87,1.13l-1.59-.91-1.26,2.2,1.59.91c-.19.41-.36.82-.51,1.25l-1.77-.46-.64,2.45,1.77.47c-.07.42-.13.84-.16,1.27h-1.83v2.53h1.83c.04.49.11.98.2,1.45l-1.76.49.67,2.44,1.76-.49c.14.38.29.74.46,1.1l-1.59.91,1.26,2.2,1.59-.91c.27.38.55.75.85,1.11l-1.29,1.29,1.79,1.79,1.29-1.29c.36.31.74.6,1.13.87l-.91,1.59,2.2,1.26.91-1.59c.41.19.82.36,1.25.51l-.46,1.77,2.45.64.47-1.77c.42.07.84.13,1.27.16v1.83h2.53v-1.83c.49-.04.98-.11,1.45-.2l.49,1.76,2.44-.67-.49-1.76c.38-.14.74-.29,1.1-.46l.91,1.59,2.2-1.26-.91-1.59c.38-.27.75-.55,1.11-.85l1.29,1.29,1.79-1.79-1.29-1.29c.31-.36.6-.74.87-1.13l1.59.91,1.26-2.2-1.59-.91c.19-.41.36-.82.51-1.25l1.77.46.64-2.45-1.77-.47c.07-.42.13-.84.16-1.27h1.83ZM115.29,36.77h-6.79c-.4-3.09-2.9-5.52-6.03-5.81v-6.77c6.86.31,12.38,5.75,12.82,12.58ZM101.85,41.1c-1.9,0-3.45-1.54-3.45-3.45s1.54-3.45,3.45-3.45,3.45,1.54,3.45,3.45-1.54,3.45-3.45,3.45ZM101.22,24.19v6.77c-3.12.29-5.62,2.72-6.03,5.81h-6.79c.44-6.82,5.96-12.27,12.82-12.58ZM88.38,38.02h6.77c.18,3.33,2.78,6.01,6.07,6.31v6.77c-7.03-.32-12.65-6.03-12.84-13.08ZM102.48,51.11v-6.77c3.29-.3,5.89-2.99,6.07-6.31h6.77c-.19,7.06-5.81,12.76-12.84,13.08Z"/></g><g id="TEXTS"><text class="cls-2" transform="translate(86.27 93.26)"><tspan class="cls-9" x="0" y="0">S</tspan><tspan class="cls-11" x="26.16" y="0">k</tspan><tspan class="cls-9" x="53.05" y="0">ill</tspan><tspan class="cls-14" x="90.08" y="0">See</tspan><tspan class="cls-13" x="164" y="0">k</tspan><tspan class="cls-14" x="187.24" y="0">er</tspan></text><text class="cls-10" transform="translate(86.07 123.67)"><tspan class="cls-7" x="0" y="0">L</tspan><tspan class="cls-8" x="11.62" y="0">e</tspan><tspan x="23.4" y="0">a</tspan><tspan class="cls-16" x="35.2" y="0">r</tspan><tspan class="cls-20" x="43.06" y="0">n. G</tspan><tspan class="cls-15" x="81.54" y="0">r</tspan><tspan class="cls-1" x="89.3" y="0">o</tspan><tspan class="cls-12" x="101.54" y="0">w</tspan><tspan x="118.44" y="0">. </tspan><tspan class="cls-18" x="127.92" y="0">A</tspan><tspan class="cls-6" x="142.16" y="0">d</tspan><tspan class="cls-17" x="155.72" y="0">v</tspan><tspan x="166.24" y="0">a</tspan><tspan class="cls-19" x="178.04" y="0">n</tspan><tspan class="cls-21" x="191.62" y="0">c</tspan><tspan x="202.7" y="0">e</tspan></text></g></svg>